<svg focusable="false" viewBox="0 0 24 24" xmlns="http://www.w3.org/2000/svg">
    <path fill="none" stroke="#009f9c" stroke-width="2"
          d="M17.151 3.013c.854 0 1.708.326 2.359.977s.977 1.505.977 2.359c0 .853-.326 1.707-.977 2.358-.258.259-.53.464-.808.621h0l.88 1.345c.336.378.504.853.504 1.327a1.99 1.99 0 0 1-.586 1.414h0l-2.706 2.706c-1.207-1.294-1.377-2.092-1.932-2.646-.309-.31-.657-.46-1.013-.46a1.332 1.332 0 0 0-1.335 1.336c0 .342.13.683.39.944.303.302.64.453.987.46h0l1.807.035-2.701 4.124c-.4.448-.948.673-1.497.673A1.994 1.994 0 0 1 10.086 20h0L3.5 13.414A1.994 1.994 0 0 1 2.914 12c0-.512.195-1.024.586-1.414h0l2.682-2.682c1.225 1.27 1.4 2.068 1.956 2.623.31.31.657.46 1.013.46a1.332 1.332 0 0 0 1.336-1.336c0-.341-.13-.683-.391-.944-.302-.302-.64-.453-.986-.46h0l-1.807-.035 2.7-4.125A1.999 1.999 0 0 1 12.914 4h0l1.07 1.07c.258-.406.46-.732.74-1.012.74-.74 1.588-1.045 2.427-1.045z"></path>
</svg>